<?xml version="1.0" encoding="utf-8"?>
<!-- Generator: Adobe Illustrator 26.0.3, SVG Export Plug-In . SVG Version: 6.00 Build 0)  -->
<svg version="1.1" id="Layer_1" xmlns="http://www.w3.org/2000/svg" xmlns:xlink="http://www.w3.org/1999/xlink" x="0px" y="0px"
	 viewBox="0 0 48 48" style="enable-background:new 0 0 48 48;" xml:space="preserve">
<style type="text/css">
	.st0{fill:#FFFFFF;}
</style>
<path class="st0" d="M2.1,23.6c-0.4-0.5-0.6-1.1-0.6-1.8c0-0.7,0.2-1.3,0.6-1.7L9,12.9L6.2,10l-1.5,1.6C4.2,12,3.6,12.2,3,12.2
	S1.7,12,1.3,11.5c-0.5-0.4-0.7-1-0.7-1.7c0-0.7,0.2-1.3,0.7-1.8l6.4-6.6C8.1,1,8.6,0.8,9.3,0.8s1.3,0.2,1.8,0.6
	c0.4,0.5,0.6,1.1,0.6,1.8s-0.2,1.3-0.6,1.7L9.5,6.6l2.8,2.8l6.9-7.2c0.4-0.4,0.9-0.6,1.6-0.6c0.7,0,1.2,0.2,1.8,0.6
	C23,2.7,23.2,3.3,23.2,4S23,5.3,22.6,5.7l-1.5,1.5l4.2,4.3l-6.4,6.6c-0.5,0.5-0.7,1.2-0.7,1.8c0,0.7,0.2,1.2,0.7,1.6
	c0.4,0.5,1,0.8,1.6,0.8c0.7,0,1.2-0.3,1.7-0.8l6.4-6.6l3.7,3.8l-6.4,6.7c-0.5,0.4-0.7,1-0.7,1.7c0,0.7,0.2,1.3,0.7,1.8
	c0.4,0.4,0.9,0.6,1.6,0.6c0.7,0,1.2-0.3,1.7-0.8l6.5-6.7l3.8,4.1c0.7,1.2,1.2,2.5,1.3,4c0.1,1.4-0.3,2.6-1.3,3.5l-1.8,1.9l10.2,10.7
	h-6.6l-7-7.3l-1.8,1.9c-1,1-2.2,1.5-3.6,1.5c-1.4,0-2.6-0.5-3.6-1.5L6.9,22l-1.4,1.6c-0.4,0.5-1,0.7-1.7,0.7
	C3.1,24.3,2.6,24,2.1,23.6z"/>
</svg>
