<?xml version="1.0" encoding="utf-8"?>
<!-- Generator: Adobe Illustrator 26.0.3, SVG Export Plug-In . SVG Version: 6.00 Build 0)  -->
<svg version="1.1" id="Layer_1" xmlns="http://www.w3.org/2000/svg" xmlns:xlink="http://www.w3.org/1999/xlink" x="0px" y="0px"
	 viewBox="0 0 48 48" style="enable-background:new 0 0 48 48;" xml:space="preserve">
<style type="text/css">
	.st0{fill:#FFFFFF;}
</style>
<path class="st0" d="M39.7,43.2L26.3,29.8c-1,0.8-2.1,1.4-3.4,1.8c-1.3,0.4-2.7,0.7-4.2,0.7c-3.8,0-7.1-1.3-9.7-3.9
	s-3.9-5.8-3.9-9.6s1.3-7,3.9-9.6s5.8-3.9,9.6-3.9s7,1.3,9.6,3.9S32,15,32,18.8c0,1.5-0.2,2.9-0.6,4.2c-0.4,1.2-1.1,2.4-1.9,3.6
	L43,39.9L39.7,43.2z M18.5,27.7c2.5,0,4.7-0.9,6.4-2.6c1.7-1.7,2.6-3.8,2.6-6.4c0-2.5-0.9-4.6-2.6-6.4c-1.7-1.7-3.8-2.6-6.3-2.6
	c-2.6,0-4.7,0.9-6.4,2.6c-1.7,1.7-2.6,3.9-2.6,6.4c0,2.5,0.9,4.7,2.6,6.4S16,27.7,18.5,27.7z"/>
</svg>
